<svg width="145" height="39" viewBox="0 0 145 39" fill="none" xmlns="http://www.w3.org/2000/svg">
<path d="M20.408 8.64126C23.2359 8.64126 25.5284 10.5036 25.5284 12.801V29.3799H5.12038C2.29247 29.3799 0 27.5176 0 25.2202V20.5779C0 18.2806 2.29247 16.4182 5.12038 16.4182H10.6369V23.0069C10.6369 23.6633 11.2919 24.1954 12.0998 24.1954H14.8915V15.0143C14.8915 14.3579 14.2365 13.8261 13.4286 13.8258H0.365742V8.64126H20.408ZM44.6739 24.1954L44.6743 0H55.3111V29.3799H34.9035C32.0756 29.3799 29.7831 27.5176 29.7831 25.2202V12.801C29.7831 10.5036 32.0756 8.64126 34.9035 8.64126H40.4192V23.0069C40.4192 23.6633 41.0743 24.1954 41.8822 24.1954H44.6739ZM74.457 24.1954V8.64126H85.0942V33.8603C85.0942 36.1576 82.8017 38.02 79.9738 38.02H59.9315V31.9723H74.4573V29.3799H64.6862C61.8583 29.3799 59.5658 27.5176 59.5658 25.2202V8.64126H70.2023V23.0069C70.2023 23.6633 70.8573 24.1954 71.6653 24.1954H74.457ZM109.757 8.64126C112.584 8.64126 114.877 10.5036 114.877 12.801V17.4433C114.877 19.7406 112.584 21.603 109.757 21.603H104.24V15.0146C104.24 14.3582 103.585 13.8261 102.777 13.8261H99.9854V23.0069C99.9854 23.6633 100.64 24.1954 101.448 24.1954H114.511V29.3799H94.4693C91.6413 29.3799 89.3489 27.5176 89.3489 25.2202V8.64126H109.757ZM139.54 8.64126C142.368 8.64126 144.66 10.5036 144.66 12.801V29.3799H134.023V15.0143C134.023 14.3606 133.365 13.8258 132.56 13.8258H129.768V29.3799H119.132V8.64126H139.54Z" fill="#32AA52"/>
</svg>
