<svg width="145" height="39" viewBox="0 0 145 39" fill="none" xmlns="http://www.w3.org/2000/svg">
<path d="M13.983 0.266962L0 10.6492L6.91384 15.1148L11.9288 12.4386V37.502H26.8397V0.266962H13.983ZM131.008 25.9233C124.04 29.1303 116.502 29.5678 108.737 27.7751C104.811 26.8692 101.728 24.9019 98.766 22.9186C94.2331 19.8834 90.5804 16.2976 86.6853 12.8703C82.6255 9.29785 78.3474 5.92114 72.8193 3.45216C68.2396 1.40705 63.3676 0.113624 57.9301 0.0681771C49.402 -0.00332614 42.278 2.27872 36.7388 6.89552C35.308 8.08866 34.1341 9.38875 33.2662 10.7946C32.705 11.7032 31.3626 14.0149 31.1171 15.2856C31.3226 15.0136 32.3923 13.1084 32.5952 12.8354C33.1249 11.9816 33.6555 11.5102 34.2847 10.9133C35.4029 9.85352 36.758 8.94943 38.4977 8.29741C45.9498 5.50454 56.1691 6.50862 62.4536 10.5834C67.9796 14.1661 72.564 18.3597 77.6092 22.2542C82.3234 25.893 86.7772 29.7175 92.0202 32.9863C97.1071 36.1579 102.957 38.0007 109.897 37.9504C121.977 37.8631 132.464 32.1665 135.592 23.8351C135.946 22.8923 136.356 21.7209 136.204 20.4324C135.063 22.7068 133.554 24.7513 131.008 25.9233ZM65.2824 24.8076C62.4552 26.2876 59.5522 27.6762 55.7311 27.0221C50.9574 26.2046 47.7846 24.1371 46.7525 20.7183C45.7884 17.5248 47.1418 14.7599 50.7408 12.6372C52.361 11.6816 54.1573 11.125 56.1038 10.8832C57.1062 10.7584 58.4796 10.8711 59.5582 10.9017C55.9745 9.01293 51.5951 8.25427 47.2635 8.2979C39.8646 8.37213 35.3019 10.5245 32.5538 15.42C31.4471 17.3918 30.5149 19.4476 30.8481 21.6051C31.9037 26.6536 35.187 30.8714 40.9333 33.9503C48.9972 38.2705 57.8674 39.197 67.2817 36.5099C73.2365 34.8102 77.903 31.1983 82.233 27.9873L72.3141 19.9529C70.3927 21.4972 67.6267 23.5802 65.2824 24.8076ZM124.13 7.59089C124.13 6.16295 124.614 4.81651 125.467 3.6264C119.403 0.499651 111.627 -0.749232 104.247 0.448447C96.8894 1.64279 91.106 4.67653 85.8128 8.32592C85.2609 8.70647 84.6308 9.28122 84.6308 9.28122L94.7357 18.0179L95.7113 17.3153C98.2683 15.3199 100.919 13.3875 104.213 11.9829C105.559 11.4084 106.955 10.8697 108.552 10.8337C113.315 10.7255 116.973 12.178 119.228 15.1333C121.465 18.0643 121.07 20.9965 118.447 23.7624C117.022 25.2643 114.948 26.1639 112.647 26.9062C117.83 27.5182 122.854 27.3219 127.685 25.7294C133.391 23.8482 136.177 19.6334 136.045 16.3204C129.433 16.187 124.13 12.3313 124.13 7.59089Z" fill="#919FA1"/>
<path d="M135.618 3.92862V5.60258H133.251V11.488H130.764V5.60258H128.344V3.92862H135.618ZM140.842 9.81031C141.244 9.81031 141.558 9.72396 141.781 9.56186C142.005 9.39977 142.125 9.18405 142.125 8.9247C142.125 8.65474 142.005 8.6402 141.766 8.48901C141.528 8.33752 141.215 8.26208 140.842 8.26208H139.351V9.81031H140.842ZM140.633 6.89049V6.86898C140.946 6.86898 141.215 6.80414 141.423 6.67447C141.632 6.54509 141.737 6.37209 141.737 6.16697C141.737 5.95095 141.632 5.77825 141.423 5.64858C141.215 5.5192 140.946 5.45437 140.633 5.45437H139.351V6.89049H140.633ZM141.006 3.93159L141.051 3.89917C141.513 3.89917 141.946 3.9531 142.333 4.05036C142.721 4.14761 143.049 4.28789 143.318 4.4715C143.586 4.6551 143.795 4.87113 143.944 5.11957C144.093 5.36802 144.168 5.62706 144.168 5.90793C144.168 6.10214 144.232 6.36755 144.143 6.52964C144.053 6.69143 143.949 6.83202 143.815 6.96139C143.68 7.09106 143.531 7.19923 143.367 7.28558C143.203 7.37193 143.054 7.42586 142.92 7.45828V7.46918C143.158 7.51221 143.288 7.50615 143.512 7.61401C143.735 7.72217 143.929 7.85185 144.093 8.01364C144.257 8.17573 144.392 8.35934 144.496 8.56445C144.6 8.76957 144.66 8.97499 144.66 9.19071C144.66 9.52551 144.585 9.82788 144.436 10.1087C144.287 10.3896 144.064 10.6271 143.765 10.8323C143.467 11.0374 143.094 11.1995 142.631 11.3182C142.169 11.437 141.632 11.4909 141.006 11.4909H136.905V3.93159H141.006Z" fill="#3390DA"/>
</svg>
