<svg width="145" height="39" viewBox="0 0 145 39" fill="none" xmlns="http://www.w3.org/2000/svg">
<path d="M4.70916 0.000732422H31.0566C33.6496 0.000732422 35.7658 2.23912 35.7658 5.00662V33.0158C35.7658 35.7722 33.6601 38.0201 31.0566 38.0201H4.70916C2.11614 38.0201 0 35.7833 0 33.0158V4.99394C0 2.23912 2.10422 0.000732422 4.70916 0.000732422Z" fill="#5468FF"/>
<path d="M21.61 8.48824V7.18449C21.6094 6.27339 20.9143 5.53523 20.0572 5.5354H16.4374C15.5803 5.53523 14.8852 6.27339 14.8846 7.18449V8.52309C14.8846 8.672 15.0142 8.77655 15.1558 8.7417C16.1798 8.42742 17.2404 8.26849 18.3062 8.26963C19.3389 8.26963 20.3612 8.41854 21.3492 8.70685C21.4804 8.7417 21.61 8.63873 21.61 8.48824ZM11.6895 10.1944L11.071 9.53694C10.78 9.22736 10.3852 9.05343 9.97347 9.05343C9.56176 9.05343 9.16693 9.22736 8.87591 9.53694L8.13675 10.3211C7.8449 10.6294 7.68079 11.0488 7.68079 11.4862C7.68079 11.9236 7.8449 12.343 8.13675 12.6514L8.74477 13.2977C8.84313 13.4007 8.9847 13.3769 9.07113 13.2739C9.42985 12.7502 9.82593 12.2566 10.2559 11.7975C10.6894 11.3351 11.1579 10.9112 11.6567 10.5302C11.7652 10.4605 11.7759 10.2989 11.6895 10.1944ZM18.2954 14.3337V19.9733C18.2954 20.1348 18.4593 20.2505 18.5994 20.1697L23.316 17.5749C23.4233 17.5178 23.4561 17.3784 23.4025 17.2644C22.4249 15.441 20.6098 14.1959 18.513 14.1151C18.4042 14.1151 18.2954 14.207 18.2954 14.3337ZM18.2954 27.9193C14.3627 27.9193 11.1676 24.5277 11.1676 20.3534C11.1676 16.1792 14.3627 12.7892 18.2954 12.7892C22.2297 12.7892 25.4235 16.1792 25.4235 20.3534C25.4235 24.5277 22.2404 27.9193 18.2954 27.9193ZM18.2954 9.60664C12.71 9.60664 8.17967 14.4161 8.17967 20.3534C8.17967 26.2924 12.71 31.0908 18.2954 31.0908C23.8808 31.0908 28.4112 26.2813 28.4112 20.3424C28.4112 14.4034 23.8913 9.60664 18.2954 9.60664Z" fill="white"/>
<path d="M71.2973 30.156C64.3334 30.1905 64.3334 24.1819 64.3334 23.2251L64.3215 0.716031L68.5698 0V22.3712C68.5698 22.9146 68.5698 26.3506 71.297 26.3617V30.1557L71.2973 30.156ZM54.0761 26.4773C55.3797 26.4773 56.3472 26.3965 57.0208 26.2587V21.6695C56.6845 21.5744 56.3431 21.5009 55.9985 21.4493C55.5094 21.3722 55.0157 21.3335 54.5213 21.3336C54.0534 21.3336 53.575 21.3685 53.0982 21.4493C52.6198 21.519 52.1846 21.6568 51.8046 21.8532C51.4246 22.0496 51.1087 22.3269 50.8807 22.6833C50.6423 23.0413 50.5335 23.2488 50.5335 23.7906C50.5335 24.8504 50.8807 25.4635 51.5111 25.8658C52.1414 26.2698 52.9998 26.4773 54.0761 26.4773ZM53.7065 10.1021C55.1073 10.1021 56.2918 10.2874 57.2485 10.6565C58.204 11.0256 58.976 11.5436 59.5405 12.201C60.1172 12.8696 60.5076 13.7583 60.7464 14.704C60.9967 15.6497 61.116 16.6873 61.116 17.8279V29.4302C60.4647 29.5791 59.4749 29.7517 58.1504 29.9593C56.8253 30.1668 55.3368 30.2713 53.6838 30.2713C52.587 30.2713 51.5766 30.1557 50.675 29.9371C49.7615 29.7185 48.9911 29.3605 48.3383 28.8646C47.6975 28.3688 47.1983 27.7335 46.8287 26.951C46.4696 26.1652 46.2848 25.0595 46.2848 23.9063C46.2848 22.7989 46.4904 22.0956 46.8943 21.3336C47.3056 20.5732 47.86 19.9507 48.5559 19.4659C49.2623 18.9812 50.0655 18.6358 50.9895 18.4283C51.9134 18.2208 52.8806 18.1162 53.8791 18.1162C54.347 18.1162 54.8358 18.1511 55.3574 18.2081C55.8685 18.2667 56.4229 18.3713 57.01 18.5202V17.782C57.01 17.264 56.9549 16.7681 56.8357 16.3071C56.7211 15.8528 56.5129 15.4313 56.2262 15.0731C55.9326 14.7151 55.5541 14.4379 55.0757 14.243C54.5974 14.0466 53.9878 13.8961 53.2606 13.8961C52.283 13.8961 51.3918 14.0228 50.5767 14.1733C49.7615 14.3222 49.0879 14.4965 48.5768 14.6913L48.0671 10.9908C48.5991 10.7943 49.3919 10.5979 50.4142 10.403C51.4351 10.1939 52.5334 10.1021 53.7062 10.1021H53.7065ZM137.61 26.3506C138.914 26.3506 139.88 26.2698 140.553 26.1304V21.5427C140.315 21.473 139.978 21.3922 139.532 21.3225C139.043 21.2455 138.549 21.2068 138.054 21.2069C137.588 21.2069 137.109 21.2417 136.631 21.3225C136.154 21.3922 135.719 21.5301 135.339 21.7265C134.957 21.9229 134.643 22.2001 134.415 22.5566C134.175 22.9146 134.068 23.1221 134.068 23.6639C134.068 24.7237 134.415 25.3367 135.045 25.7391C135.686 26.1542 136.534 26.3506 137.61 26.3506ZM137.251 9.988C138.652 9.988 139.836 10.1718 140.793 10.5409C141.748 10.91 142.52 11.428 143.085 12.0854C143.65 12.7428 144.052 13.6426 144.29 14.5883C144.541 15.5341 144.66 16.5717 144.66 17.7139V29.3145C144.009 29.4634 143.019 29.6361 141.694 29.8452C140.37 30.0527 138.881 30.1557 137.228 30.1557C136.131 30.1557 135.121 30.0401 134.22 29.8214C133.306 29.6028 132.536 29.2448 131.883 28.749C131.242 28.2531 130.743 27.6179 130.373 26.8353C130.014 26.0512 129.829 24.9439 129.829 23.7906C129.829 22.6833 130.037 21.9799 130.439 21.218C130.85 20.4576 131.405 19.835 132.101 19.3503C132.807 18.8671 133.61 18.5202 134.534 18.3127C135.458 18.1051 136.425 18.0022 137.425 18.0022C137.892 18.0022 138.38 18.037 138.902 18.0941C139.424 18.1511 139.968 18.2556 140.553 18.4061V17.6679C140.553 17.1483 140.5 16.6525 140.38 16.1915C140.266 15.7371 140.058 15.3155 139.771 14.9575C139.477 14.5994 139.099 14.3222 138.62 14.1274C138.142 13.9309 137.533 13.782 136.805 13.782C135.828 13.782 134.937 13.9088 134.121 14.0577C133.306 14.2082 132.633 14.3808 132.121 14.5773L131.612 10.8751C132.144 10.6787 132.937 10.4838 133.959 10.2874C134.98 10.091 136.077 9.988 137.251 9.988ZM124.494 7.84308C125.917 7.84308 127.081 6.62012 127.081 5.10885C127.081 3.59917 125.929 2.37621 124.494 2.37621C123.061 2.37621 121.909 3.59917 121.909 5.10885C121.909 6.62012 123.071 7.84308 124.494 7.84308ZM126.634 30.1557H122.365V10.6898L126.634 9.97533V30.1557H126.634ZM119.149 30.156C112.185 30.1905 112.185 24.1819 112.185 23.2251L112.173 0.716031L116.421 0V22.3712C116.421 22.9146 116.421 26.3506 119.149 26.3617V30.156ZM105.339 20.193C105.339 18.243 104.936 16.6176 104.154 15.4881C103.372 14.346 102.275 13.782 100.873 13.782C99.4718 13.782 98.3732 14.346 97.5923 15.4881C96.8099 16.6287 96.4287 18.243 96.4287 20.193C96.4287 22.1653 96.8206 23.4896 97.603 24.6318C98.3854 25.7851 99.4822 26.3506 100.885 26.3506C102.285 26.3506 103.384 25.774 104.166 24.6318C104.948 23.4785 105.339 22.1653 105.339 20.193ZM109.684 20.1819C109.684 21.7043 109.478 22.856 109.054 24.1138C108.631 25.37 108.033 26.4425 107.263 27.3312C106.491 28.2183 105.567 28.9106 104.48 29.3953C103.394 29.8785 101.72 30.1557 100.884 30.1557C100.047 30.1446 98.3851 29.8911 97.3091 29.3953C96.2332 28.8995 95.3092 28.2183 94.5388 27.3312C93.7668 26.4425 93.1695 25.37 92.7344 24.1138C92.3004 22.856 92.0831 21.7043 92.0831 20.1819C92.0831 18.6596 92.2781 17.1943 92.7132 15.9491C93.1484 14.704 93.7564 13.6426 94.5388 12.7555C95.3211 11.8668 96.2555 11.1856 97.3196 10.7025C98.3955 10.2177 99.5803 9.988 100.862 9.988C102.145 9.988 103.328 10.2288 104.415 10.7025C105.502 11.1856 106.437 11.8668 107.197 12.7555C107.967 13.6426 108.565 14.704 109 15.9491C109.456 17.1943 109.684 18.6596 109.684 20.1819H109.684ZM77.7083 20.1819C77.7083 22.0718 78.0987 24.1708 78.8811 25.0468C79.6635 25.9245 80.6736 26.3617 81.9137 26.3617C82.5873 26.3617 83.2281 26.2587 83.8254 26.0623C84.423 25.8658 84.9002 25.6346 85.2817 25.3589V14.1622C84.9777 14.0925 83.7062 13.8153 82.4771 13.782C80.9347 13.7345 79.7618 14.4046 78.9362 15.4755C78.1208 16.5495 77.7083 18.4283 77.7083 20.1819ZM89.5184 29.0832C89.5184 32.1628 88.7793 34.4107 87.2902 35.8412C85.803 37.2701 83.5319 37.9861 80.4679 37.9861C79.3488 37.9861 77.024 37.7548 75.1656 37.3176L75.8497 33.7422C77.404 34.0875 79.4575 34.181 80.5335 34.181C82.2383 34.181 83.4558 33.8119 84.1831 33.0737C84.9118 32.3355 85.2695 31.2408 85.2695 29.7866V29.0484C84.8462 29.267 84.2919 29.4872 83.6079 29.7185C82.9238 29.9371 82.131 30.0527 81.2384 30.0527C80.0656 30.0527 79 29.8563 78.0344 29.4634C77.0672 29.0721 76.2297 28.4955 75.5457 27.7335C74.8616 26.9732 74.3177 26.0163 73.9377 24.8742C73.5577 23.732 73.361 21.6916 73.361 20.193C73.361 18.7863 73.5681 17.0216 73.9708 15.8446C74.3833 14.6691 74.9692 13.6537 75.7632 12.8125C76.5459 11.9713 77.5023 11.325 78.6215 10.8514C79.7407 10.3793 81.0536 10.0799 82.4768 10.0799C83.8582 10.0799 85.1294 10.2636 86.3678 10.4838C87.6062 10.7025 88.6598 10.9322 89.5181 11.1856V29.0832H89.5184Z" fill="#5468FF"/>
</svg>
