<svg width="145" height="39" viewBox="0 0 145 39" fill="none" xmlns="http://www.w3.org/2000/svg">
<path d="M11.2136 3.91748C9.74435 2.16726 8.47916 0.389698 8.22069 0.0205104C8.19348 -0.00683681 8.15266 -0.00683681 8.12545 0.0205104C7.86697 0.389698 6.6018 2.16726 5.13254 3.91748C-7.47844 20.0659 7.11876 30.9639 7.11876 30.9639L7.24119 31.0459C7.35001 32.7277 7.6221 35.148 7.6221 35.148H8.16626H8.71043C8.71043 35.148 8.98252 32.7414 9.09135 31.0459L9.21378 30.9502C9.22738 30.9639 23.8246 20.0659 11.2136 3.91748ZM8.16626 30.7177C8.16626 30.7177 7.51328 30.1571 7.33642 29.87V29.8426L8.12545 12.2584C8.12545 12.2037 8.20709 12.2037 8.20709 12.2584L8.99611 29.8426V29.87C8.81926 30.1571 8.16626 30.7177 8.16626 30.7177Z" fill="#01EC64"/>
<path d="M35.4841 27.1295L29.4013 12.2131L29.3877 12.1719H24.655V13.1745H25.4188C25.6506 13.1745 25.8688 13.2707 26.0326 13.4355C26.1962 13.6003 26.278 13.8201 26.278 14.0536L26.1417 29.0662C26.1417 29.5331 25.7599 29.9176 25.2961 29.9315L24.5187 29.9451V30.9341H29.1286V29.9451L28.6512 29.9315C28.1875 29.9176 27.8055 29.5331 27.8055 29.0662V14.9189L34.434 30.9341C34.5294 31.1675 34.7476 31.3186 34.9932 31.3186C35.2386 31.3186 35.4569 31.1675 35.5523 30.9341L42.0307 15.276L42.1262 29.0662C42.1262 29.5469 41.7443 29.9315 41.267 29.9451H40.7759V30.9341H46.1768V29.9451H45.4403C44.9766 29.9451 44.5947 29.5469 44.5811 29.0798L44.5402 14.0673C44.5402 13.5866 44.922 13.202 45.3858 13.1883L46.1768 13.1745V12.1719H41.5669L35.4841 27.1295ZM77.897 29.6838C77.7465 29.5325 77.6645 29.3261 77.6645 29.0785V21.7037C77.6645 20.3004 77.2543 19.1996 76.4338 18.4154C75.6271 17.631 74.5058 17.2321 73.1111 17.2321C71.1556 17.2321 69.6105 18.0301 68.5302 19.5986C68.5166 19.6261 68.4756 19.6399 68.4346 19.6399C68.3934 19.6399 68.3662 19.6123 68.3662 19.5711L67.8602 17.6035H67.0123L64.8382 18.8556V19.5435H65.3989C65.6586 19.5435 65.8774 19.6123 66.0279 19.75C66.1783 19.8876 66.2603 20.094 66.2603 20.3828V29.0647C66.2603 29.3123 66.1783 29.5187 66.0279 29.6701C65.8774 29.8214 65.6724 29.904 65.4263 29.904H64.8792V30.9083H69.8839V29.904H69.337C69.0908 29.904 68.8857 29.8214 68.7353 29.6701C68.5849 29.5187 68.5028 29.3123 68.5028 29.0647V23.3135C68.5028 22.5843 68.6669 21.8551 68.9678 21.1395C69.2822 20.4379 69.7471 19.8463 70.3626 19.3923C70.9778 18.9382 71.7163 18.718 72.5641 18.718C73.5212 18.718 74.246 19.0207 74.6972 19.6261C75.1484 20.2316 75.381 21.0158 75.381 21.9514V29.051C75.381 29.2985 75.2988 29.5049 75.1484 29.6563C74.9981 29.8077 74.7929 29.8902 74.5468 29.8902H73.9999V30.8945H79.0046V29.8902H78.4577C78.2525 29.9178 78.061 29.8352 77.897 29.6838ZM123.621 13.295C122.238 12.5554 120.692 12.1719 119.023 12.1719H112.513V13.1717H113.151C113.395 13.1717 113.612 13.2676 113.829 13.4867C114.032 13.6921 114.141 13.925 114.141 14.1715V28.9087C114.141 29.1552 114.032 29.3881 113.829 29.5935C113.626 29.7989 113.395 29.9085 113.151 29.9085H112.513V30.9083H119.023C120.692 30.9083 122.238 30.5249 123.621 29.7853C125.004 29.0456 126.13 27.9499 126.944 26.553C127.758 25.156 128.178 23.4713 128.178 21.5538C128.178 19.6364 127.758 17.9654 126.944 16.5547C126.117 15.1303 125.004 14.0483 123.621 13.295ZM125.561 21.5264C125.561 23.2796 125.249 24.7587 124.638 25.9503C124.028 27.1419 123.214 28.0321 122.21 28.6075C121.207 29.1827 120.095 29.4703 118.901 29.4703H117.586C117.342 29.4703 117.125 29.3744 116.908 29.1552C116.704 28.9498 116.596 28.717 116.596 28.4704V14.5688C116.596 14.3222 116.691 14.1031 116.908 13.8839C117.111 13.6785 117.342 13.5689 117.586 13.5689H118.901C120.095 13.5689 121.207 13.8565 122.21 14.4317C123.214 15.007 124.028 15.8973 124.638 17.0888C125.249 18.2941 125.561 19.787 125.561 21.5264ZM143.566 22.5263C142.964 21.8277 141.802 21.2388 140.436 20.9237C142.323 19.9787 143.292 18.6502 143.292 16.9382C143.292 16.0068 143.047 15.1714 142.554 14.4591C142.062 13.747 141.365 13.1717 140.477 12.7745C139.587 12.3773 138.548 12.1719 137.373 12.1719H130.004V13.1717H130.592C130.838 13.1717 131.056 13.2676 131.275 13.4867C131.48 13.6921 131.59 13.925 131.59 14.1715V28.9087C131.59 29.1552 131.48 29.3881 131.275 29.5935C131.07 29.7989 130.838 29.9085 130.592 29.9085H129.949V30.9083H137.947C139.164 30.9083 140.298 30.7029 141.324 30.292C142.35 29.8811 143.17 29.2785 143.758 28.4841C144.359 27.6898 144.66 26.7173 144.66 25.5942C144.646 24.3889 144.291 23.3617 143.566 22.5263ZM134.392 29.1689C134.187 28.9634 134.078 28.7307 134.078 28.4841V21.8688H137.879C139.218 21.8688 140.244 22.2112 140.955 22.896C141.666 23.5809 142.022 24.4711 142.022 25.5668C142.022 26.2242 141.857 26.868 141.557 27.4569C141.242 28.0596 140.777 28.5389 140.149 28.9087C139.533 29.2785 138.767 29.4703 137.879 29.4703H135.076C134.83 29.4703 134.611 29.3744 134.392 29.1689ZM134.092 20.458V14.5825C134.092 14.3359 134.187 14.1168 134.406 13.8975C134.611 13.6921 134.843 13.5826 135.09 13.5826H136.894C138.193 13.5826 139.15 13.9114 139.752 14.5413C140.353 15.185 140.654 16.0068 140.654 17.0204C140.654 18.0613 140.367 18.8968 139.807 19.5267C139.246 20.1431 138.398 20.458 137.277 20.458H134.092ZM58.8446 18.1057C57.7999 17.5324 56.6331 17.2321 55.3713 17.2321C54.1428 17.2321 52.9913 17.5039 51.9797 18.06L51.898 18.1057C50.8532 18.6789 50.0256 19.5115 49.415 20.5625C48.8045 21.6136 48.4925 22.8421 48.4925 24.207C48.4925 25.5719 48.8045 26.8004 49.415 27.8514C50.0256 28.9025 50.8532 29.7351 51.898 30.3084C52.9427 30.8815 54.1095 31.1819 55.3713 31.1819C56.5999 31.1819 57.7513 30.9101 58.7629 30.3541L58.8446 30.3084C59.8894 29.7351 60.7171 28.9025 61.3276 27.8514C61.9381 26.8004 62.2501 25.5719 62.2501 24.207C62.2501 22.8421 61.9381 21.6136 61.3276 20.5625C60.7171 19.5115 59.8894 18.6789 58.8446 18.1057ZM59.8487 24.207C59.8487 25.8859 59.4417 27.2508 58.6275 28.2335C57.8271 29.2163 56.7281 29.7214 55.3713 29.7214C54.0388 29.7214 52.9548 29.2342 52.1583 28.2857L52.1151 28.2335C51.3009 27.2508 50.8939 25.8859 50.8939 24.207C50.8939 22.5586 51.2863 21.2129 52.0711 20.2344L52.1151 20.1804C52.9155 19.1976 54.0146 18.6926 55.3713 18.6926C56.7281 18.6926 57.8271 19.1976 58.6275 20.1804C59.4417 21.1632 59.8487 22.5281 59.8487 24.207ZM106.928 18.1057C105.884 17.5324 104.717 17.2321 103.455 17.2321C102.227 17.2321 101.075 17.5039 100.063 18.06L99.9818 18.1057C98.937 18.6789 98.1093 19.5115 97.4988 20.5625C96.8883 21.6136 96.5763 22.8421 96.5763 24.207C96.5763 25.5719 96.8883 26.8004 97.4988 27.8514C98.1093 28.9025 98.937 29.7351 99.9818 30.3084C101.027 30.8815 102.193 31.1819 103.455 31.1819C104.684 31.1819 105.835 30.9101 106.847 30.3541L106.928 30.3084C107.973 29.7351 108.801 28.9025 109.411 27.8514C110.022 26.8004 110.334 25.5719 110.334 24.207C110.334 22.8421 110.022 21.6136 109.411 20.5625C108.801 19.5115 107.96 18.6789 106.928 18.1057ZM107.932 24.207C107.932 25.8859 107.525 27.2508 106.711 28.2335C105.911 29.2163 104.812 29.7214 103.455 29.7214C102.122 29.7214 101.039 29.2342 100.242 28.2857L100.199 28.2335C99.3847 27.2508 98.9777 25.8859 98.9777 24.207C98.9777 22.5452 99.3701 21.2124 100.155 20.2344L100.199 20.1804C100.999 19.1976 102.098 18.6926 103.455 18.6926C104.812 18.6926 105.911 19.1976 106.711 20.1804C107.512 21.1632 107.932 22.5281 107.932 24.207ZM87.537 17.2321C86.4438 17.2321 85.4464 17.4651 84.5445 17.9314C83.6427 18.3976 82.9322 19.0285 82.4265 19.8374C81.921 20.6327 81.6614 21.5241 81.6614 22.4702C81.6614 23.3204 81.8527 24.1019 82.2489 24.8014C82.6315 25.4733 83.1508 26.0354 83.8067 26.5016L81.8527 29.1619C81.6067 29.4909 81.5794 29.9297 81.757 30.2862C81.9483 30.6564 82.3035 30.8759 82.7135 30.8759H83.2738C82.7499 31.2307 82.3265 31.6484 82.0276 32.1412L81.9893 32.206C81.634 32.7955 81.4564 33.4126 81.4564 34.0434C81.4564 35.2016 81.9573 36.1614 82.946 36.8839L83.0004 36.923C84.0117 37.6498 85.4327 38.02 87.2227 38.02C88.4662 38.02 89.6549 37.8143 90.7344 37.4166C91.7963 37.0304 92.6647 36.4629 93.3147 35.7269L93.3715 35.6615C94.0412 34.8936 94.3828 33.9612 94.3828 32.8915C94.3828 31.7672 93.9728 30.9718 93.0163 30.204C92.1965 29.5595 90.912 29.2167 89.3133 29.2167H83.8477C83.8395 29.2167 83.8313 29.2118 83.826 29.2078L83.8203 29.2029L83.8179 29.1972C83.8147 29.1884 83.8106 29.1717 83.8203 29.1619L85.2414 27.2422C85.624 27.4204 85.9793 27.53 86.2935 27.5986C86.6214 27.6672 86.9904 27.6946 87.4003 27.6946C88.5482 27.6946 89.5867 27.4615 90.4884 26.9953C91.3903 26.5291 92.1145 25.8983 92.6338 25.0892C93.1529 24.294 93.4125 23.4027 93.4125 22.4566C93.4125 21.4418 92.9207 19.5906 91.5815 18.6444C91.5815 18.6362 91.5865 18.6329 91.5904 18.6316L91.5953 18.6308L94.533 18.9598V17.6023H89.8325C89.0947 17.3693 88.3295 17.2321 87.537 17.2321ZM89.1767 25.816C88.6574 26.0902 88.0972 26.2411 87.537 26.2411C86.6215 26.2411 85.8153 25.912 85.132 25.2676C84.4489 24.623 84.1073 23.6769 84.1073 22.4702C84.1073 21.2636 84.4489 20.3173 85.132 19.6729C85.8153 19.0285 86.6215 18.6993 87.537 18.6993C88.087 18.6993 88.6118 18.8253 89.1116 19.0891L89.1767 19.1243C89.6959 19.3987 90.1195 19.8237 90.4612 20.386C90.789 20.9482 90.9667 21.6475 90.9667 22.4702C90.9667 23.3067 90.8027 24.0059 90.4612 24.5545C90.1332 25.1167 89.6959 25.5418 89.1767 25.816ZM85.4737 30.8621H89.1767C90.2015 30.8621 90.8574 31.0678 91.2947 31.5067C91.7319 31.9454 91.9505 32.535 91.9505 33.2207C91.9505 34.2217 91.5543 35.0445 90.7618 35.6615C89.9692 36.2786 88.9034 36.594 87.5917 36.594C86.4438 36.594 85.4873 36.3334 84.7904 35.8397C84.0935 35.3462 83.7383 34.5919 83.7383 33.6321C83.7383 33.0287 83.9023 32.4665 84.2303 31.9729C84.5582 31.4792 84.9544 31.1227 85.4737 30.8621Z" fill="#001E2B"/>
</svg>
