<svg width="145" height="39" viewBox="0 0 145 39" fill="none" xmlns="http://www.w3.org/2000/svg">
<path fill-rule="evenodd" clip-rule="evenodd" d="M42.5503 28.1995V10.9177H44.8389L55.7166 24.8255V10.9177H57.8922V28.1995H55.6036L44.7258 14.1546V28.1995H42.5503Z" fill="#B52E31"/>
<path fill-rule="evenodd" clip-rule="evenodd" d="M75.6075 27.5137C74.1666 28.0349 72.6126 28.3092 70.9739 28.3092C64.532 28.3092 61.311 25.3192 61.311 19.3117C61.311 13.6334 64.419 10.7805 70.6348 10.7805C72.4148 10.7805 74.0818 11.0274 75.6075 11.4937V13.4139C74.0818 12.8379 72.4996 12.5636 70.8891 12.5636C66.0294 12.5636 63.5996 14.8129 63.5996 19.2568C63.5996 24.0573 66.0012 26.4439 70.7761 26.4439C71.5389 26.4439 72.3866 26.3342 73.3189 26.1421V20.3541H75.6075V27.5137Z" fill="#B52E31"/>
<path fill-rule="evenodd" clip-rule="evenodd" d="M79.2805 21.5337V10.9177H81.5691V21.5337C81.5691 24.8529 83.2643 26.5262 86.683 26.5262C90.0735 26.5262 91.797 24.8529 91.797 21.5337V10.9177H94.0856V21.5337C94.0856 26.0599 91.6275 28.3367 86.683 28.3367C81.7386 28.3367 79.2805 26.0599 79.2805 21.5337Z" fill="#B52E31"/>
<path fill-rule="evenodd" clip-rule="evenodd" d="M100.471 10.9177V26.3891H109.795V28.1995H98.1824V10.9177H100.471Z" fill="#B52E31"/>
<path fill-rule="evenodd" clip-rule="evenodd" d="M113.1 28.1995H110.699L119.542 8.64087L128.386 28.1995H125.843L123.554 22.7681H117.677L118.299 20.9576H122.791L119.457 13.1396L113.1 28.1995Z" fill="#B52E31"/>
<path fill-rule="evenodd" clip-rule="evenodd" d="M130.844 28.1995V10.9177H138.444C141.835 10.9177 143.53 12.2893 143.53 15.0599C143.53 17.3093 141.863 18.9826 138.557 20.0524L144.66 28.1995H141.637L135.986 20.4364V18.9826C139.376 18.4614 141.1 17.1995 141.1 15.1696C141.1 13.5786 140.168 12.7831 138.275 12.7831H133.189V28.1995H130.844Z" fill="#B52E31"/>
<path fill-rule="evenodd" clip-rule="evenodd" d="M0 6.30923L18.2238 0L36.9279 6.19951L33.9047 29.5985L18.2238 38.02L2.79714 29.7083L0 6.30923Z" fill="#E23237"/>
<path fill-rule="evenodd" clip-rule="evenodd" d="M36.928 6.19951L18.2239 0V38.02L33.9048 29.5985L36.928 6.19951Z" fill="#B52E31"/>
<path fill-rule="evenodd" clip-rule="evenodd" d="M18.2521 4.44385L6.89404 28.9676L11.1321 28.8853L13.4207 23.3441H18.2521H23.5638L26.0502 28.9401L30.0905 29.0224L18.2521 4.44385ZM18.2804 12.3167L22.1229 20.1072H18.4499H18.2521H14.9182L18.2804 12.3167Z" fill="white"/>
</svg>
